{"title":"Black.Mass.2015.1080p.WEB-DL.H264.AC3-EVO","uid":13200735,"size":4557531844,"categoryP":"video","categoryS":"hd___movies","magnet":"?xt=urn:btih:a3a799d2ecb847cb4baa1b0c1ac02f67eecb8b6b&amp;dn=Black.Mass.2015.1080p.WEB-DL.H264.AC3-EVO&amp;tr=udp%3A%2F%2Ftracker.leechers-paradise.org%3A6969&amp;tr=udp%3A%2F%2Fzer0day.ch%3A1337&amp;tr=udp%3A%2F%2Fopen.demonii.com%3A1337&amp;tr=udp%3A%2F%2Ftracker.coppersurfer.tk%3A6969&amp;tr=udp%3A%2F%2Fexodus.desync.com%3A6969","seeders":1,"leechers":0,"uploader":"zerodayz","files":2,"time":1452544204,"description":"General\r\nUnique ID : 239562327195270188092107837481234591737 (0xB43A06A49C1C6F3A89B9769E15E5EFF9)\r\nComplete name : Black.Mass.2015.1080p.WEB-DL.H264.AC3-EVO/Black.Mass.2015.1080p.WEB-DL.H264.AC3-EVO.mkv\r\nFormat : Matroska\r\nFormat version : Version 4 / Version 2\r\nFile size : 4.24 GiB\r\nDuration : 2h 2mn\r\nOverall bit rate : 4 958 Kbps\r\nMovie name : EVO\r\nEncoded date : UTC 2016-01-11 16:45:00\r\nWriting application : mkvmerge v6.7.0 ('Back to the Ground') 64bit built on Jan 8 2014 15:10:52\r\nWriting library : libebml v1.3.0 + libmatroska v1.4.1\r\n\r\nVideo\r\nID : 1\r\nFormat : AVC\r\nFormat/Info : Advanced Video Codec\r\nFormat profile :   \r\nFormat settings, CABAC : Yes\r\nFormat settings, ReFrames : 5 frames\r\nCodec ID : V_MPEG4/ISO/AVC\r\nDuration : 2h 2mn\r\nBit rate : 4 475 Kbps\r\nWidth : 1 916 pixels\r\nHeight : 796 pixels\r\nDisplay aspect ratio : 2.40:1\r\nFrame rate : 23.976 fps\r\nColor space : YUV\r\nChroma subsampling : 4:2:0\r\nBit depth : 8 bits\r\nScan type : Progressive\r\nBits/(Pixel*Frame) : 0.122\r\nStream size : 3.83 GiB (90%)\r\nLanguage : English\r\nDefault : Yes\r\nForced : No\r\nColor primaries : BT.709-5, BT.1361, IEC 61966-2-4, SMPTE RP177\r\nTransfer characteristics : BT.709-5, BT.1361\r\nMatrix coefficients : BT.709-5, BT.1361, IEC 61966-2-4 709, SMPTE RP177\r\n\r\nAudio\r\nID : 2\r\nFormat : AC-3\r\nFormat/Info : Audio Coding 3\r\nMode extension : CM (complete main)\r\nCodec ID : A_AC3\r\nDuration : 2h 2mn\r\nBit rate mode : Constant\r\nBit rate : 384 Kbps\r\nChannel(s) : 6 channels\r\nChannel positions : Front: L C R, Side: L R, LFE\r\nSampling rate : 48.0 KHz\r\nBit depth : 16 bits\r\nCompression mode : Lossy\r\nStream size : 337 MiB (8%)\r\nLanguage : English\r\nDefault : Yes\r\nForced : No\r\n\r\nMenu\r\n00:00:00.000 : en:1\r\n00:09:44.000 : en:2\r\n00:18:27.000 : en:3\r\n00:28:49.000 : en:4\r\n00:41:49.000 : en:5\r\n00:51:58.000 : en:6\r\n00:59:19.000 : en:7\r\n01:09:17.000 : en:8\r\n01:19:53.000 : en:9\r\n01:28:47.000 : en:10\r\n01:39:44.000 : en:11\r\n01:52:18.000 : en:12\r\n01:55:11.000 : en:13","torrent":{"xt":"urn:btih:a3a799d2ecb847cb4baa1b0c1ac02f67eecb8b6b","amp;dn":"Black.Mass.2015.1080p.WEB-DL.H264.AC3-EVO","amp;tr":["udp%3A%2F%2Ftracker.leechers-paradise.org%3A6969","udp%3A%2F%2Fzer0day.ch%3A1337","udp%3A%2F%2Fopen.demonii.com%3A1337","udp%3A%2F%2Ftracker.coppersurfer.tk%3A6969","udp%3A%2F%2Fexodus.desync.com%3A6969"],"infoHash":"a3a799d2ecb847cb4baa1b0c1ac02f67eecb8b6b","infoHashBuffer":{"type":"Buffer","data":[163,167,153,210,236,184,71,203,75,170,27,12,26,192,47,103,238,203,139,107]},"announce":[],"urlList":[]}}